<svg width="368" height="46" viewBox="0 0 368 46" fill="none" xmlns="http://www.w3.org/2000/svg">
<path d="M37.3977 15H32.1137C31.8012 13.4801 31.2543 12.1449 30.473 10.9943C29.706 9.84375 28.7685 8.87784 27.6605 8.09659C26.5668 7.30114 25.3523 6.70455 24.0171 6.30682C22.6818 5.90909 21.2898 5.71023 19.8409 5.71023C17.1989 5.71023 14.8054 6.37784 12.6605 7.71307C10.5298 9.0483 8.8324 11.0156 7.5682 13.6151C6.3182 16.2145 5.6932 19.4034 5.6932 23.1818C5.6932 26.9602 6.3182 30.1491 7.5682 32.7486C8.8324 35.348 10.5298 37.3153 12.6605 38.6506C14.8054 39.9858 17.1989 40.6534 19.8409 40.6534C21.2898 40.6534 22.6818 40.4545 24.0171 40.0568C25.3523 39.6591 26.5668 39.0696 27.6605 38.2884C28.7685 37.4929 29.706 36.5199 30.473 35.3693C31.2543 34.2045 31.8012 32.8693 32.1137 31.3636H37.3977C37 33.5937 36.2756 35.5895 35.2244 37.3509C34.1733 39.1122 32.8665 40.6108 31.304 41.8466C29.7415 43.0682 27.9872 43.9986 26.0412 44.6378C24.1094 45.277 22.0426 45.5966 19.8409 45.5966C16.1193 45.5966 12.8097 44.6875 9.91195 42.8693C7.01422 41.0511 4.73439 38.4659 3.07246 35.1136C1.41053 31.7614 0.579559 27.7841 0.579559 23.1818C0.579559 18.5795 1.41053 14.6023 3.07246 11.25C4.73439 7.89773 7.01422 5.3125 9.91195 3.49432C12.8097 1.67614 16.1193 0.767044 19.8409 0.767044C22.0426 0.767044 24.1094 1.08665 26.0412 1.72585C27.9872 2.36506 29.7415 3.30256 31.304 4.53835C32.8665 5.75994 34.1733 7.25142 35.2244 9.01278C36.2756 10.7599 37 12.7557 37.3977 15Z" fill="white"/>
<path d="M58.5501 45.6818C55.5955 45.6818 53.0032 44.9787 50.7731 43.5724C48.5572 42.1662 46.8242 40.1989 45.5742 37.6705C44.3384 35.142 43.7205 32.1875 43.7205 28.8068C43.7205 25.3977 44.3384 22.4219 45.5742 19.8793C46.8242 17.3366 48.5572 15.3622 50.7731 13.956C53.0032 12.5497 55.5955 11.8466 58.5501 11.8466C61.5046 11.8466 64.0899 12.5497 66.3058 13.956C68.5359 15.3622 70.2688 17.3366 71.5046 19.8793C72.7546 22.4219 73.3796 25.3977 73.3796 28.8068C73.3796 32.1875 72.7546 35.142 71.5046 37.6705C70.2688 40.1989 68.5359 42.1662 66.3058 43.5724C64.0899 44.9787 61.5046 45.6818 58.5501 45.6818ZM58.5501 41.1648C60.7944 41.1648 62.641 40.5895 64.0899 39.4389C65.5387 38.2884 66.6112 36.7756 67.3072 34.9006C68.0032 33.0256 68.3512 30.9943 68.3512 28.8068C68.3512 26.6193 68.0032 24.581 67.3072 22.6918C66.6112 20.8026 65.5387 19.2756 64.0899 18.1108C62.641 16.946 60.7944 16.3636 58.5501 16.3636C56.3058 16.3636 54.4592 16.946 53.0103 18.1108C51.5614 19.2756 50.489 20.8026 49.793 22.6918C49.097 24.581 48.7489 26.6193 48.7489 28.8068C48.7489 30.9943 49.097 33.0256 49.793 34.9006C50.489 36.7756 51.5614 38.2884 53.0103 39.4389C54.4592 40.5895 56.3058 41.1648 58.5501 41.1648Z" fill="white"/>
<path d="M86.0838 25.3125V45H81.0554V12.2727H85.9134V17.3864H86.3395C87.1065 15.7244 88.2713 14.3892 89.8338 13.3807C91.3963 12.358 93.4134 11.8466 95.885 11.8466C98.1009 11.8466 100.04 12.3011 101.702 13.2102C103.364 14.1051 104.656 15.4688 105.58 17.3011C106.503 19.1193 106.965 21.4205 106.965 24.2045V45H101.936V24.5455C101.936 21.9744 101.268 19.9716 99.9333 18.5369C98.598 17.0881 96.7656 16.3636 94.4361 16.3636C92.831 16.3636 91.3963 16.7116 90.1321 17.4077C88.8821 18.1037 87.8949 19.1193 87.1705 20.4545C86.446 21.7898 86.0838 23.4091 86.0838 25.3125Z" fill="white"/>
<path d="M121.181 25.3125V45H116.153V12.2727H121.011V17.3864H121.437C122.204 15.7244 123.369 14.3892 124.931 13.3807C126.494 12.358 128.511 11.8466 130.983 11.8466C133.199 11.8466 135.137 12.3011 136.799 13.2102C138.461 14.1051 139.754 15.4688 140.677 17.3011C141.601 19.1193 142.062 21.4205 142.062 24.2045V45H137.034V24.5455C137.034 21.9744 136.366 19.9716 135.031 18.5369C133.696 17.0881 131.863 16.3636 129.534 16.3636C127.929 16.3636 126.494 16.7116 125.23 17.4077C123.98 18.1037 122.993 19.1193 122.268 20.4545C121.544 21.7898 121.181 23.4091 121.181 25.3125Z" fill="white"/>
<path d="M164.972 45.6818C161.819 45.6818 159.099 44.9858 156.812 43.5938C154.539 42.1875 152.785 40.2273 151.549 37.7131C150.327 35.1847 149.717 32.2443 149.717 28.892C149.717 25.5398 150.327 22.5852 151.549 20.0284C152.785 17.4574 154.504 15.4545 156.705 14.0199C158.921 12.571 161.506 11.8466 164.461 11.8466C166.165 11.8466 167.849 12.1307 169.511 12.6989C171.173 13.267 172.685 14.1903 174.049 15.4688C175.413 16.733 176.499 18.4091 177.309 20.4972C178.119 22.5852 178.523 25.1562 178.523 28.2102V30.3409H153.296V25.9943H173.41C173.41 24.1477 173.041 22.5 172.302 21.0511C171.577 19.6023 170.541 18.4588 169.191 17.6207C167.856 16.7827 166.279 16.3636 164.461 16.3636C162.458 16.3636 160.725 16.8608 159.262 17.8551C157.813 18.8352 156.698 20.1136 155.917 21.6903C155.136 23.267 154.745 24.9574 154.745 26.7614V29.6591C154.745 32.1307 155.171 34.2259 156.023 35.9446C156.89 37.6491 158.09 38.9489 159.624 39.8438C161.158 40.7244 162.941 41.1648 164.972 41.1648C166.293 41.1648 167.487 40.9801 168.552 40.6108C169.631 40.2273 170.562 39.6591 171.343 38.9062C172.124 38.1392 172.728 37.1875 173.154 36.0511L178.012 37.4148C177.501 39.0625 176.641 40.5114 175.434 41.7614C174.227 42.9972 172.735 43.9631 170.96 44.6591C169.184 45.3409 167.188 45.6818 164.972 45.6818Z" fill="white"/>
<path d="M199.468 45.6818C196.4 45.6818 193.758 44.9574 191.542 43.5085C189.326 42.0597 187.621 40.0639 186.428 37.5213C185.235 34.9787 184.639 32.0739 184.639 28.8068C184.639 25.483 185.249 22.5497 186.471 20.0071C187.707 17.4503 189.425 15.4545 191.627 14.0199C193.843 12.571 196.428 11.8466 199.383 11.8466C201.684 11.8466 203.758 12.2727 205.604 13.125C207.451 13.9773 208.964 15.1705 210.143 16.7045C211.322 18.2386 212.053 20.0284 212.337 22.0739H207.309C206.925 20.5824 206.073 19.2614 204.752 18.1108C203.445 16.946 201.684 16.3636 199.468 16.3636C197.508 16.3636 195.789 16.875 194.312 17.8977C192.849 18.9062 191.705 20.3338 190.881 22.1804C190.072 24.0128 189.667 26.1648 189.667 28.6364C189.667 31.1648 190.065 33.3665 190.86 35.2415C191.67 37.1165 192.806 38.5724 194.269 39.6094C195.746 40.6463 197.479 41.1648 199.468 41.1648C200.775 41.1648 201.961 40.9375 203.026 40.483C204.092 40.0284 204.994 39.375 205.732 38.5227C206.471 37.6705 206.996 36.6477 207.309 35.4545H212.337C212.053 37.3864 211.35 39.1264 210.228 40.6747C209.12 42.2088 207.65 43.4304 205.817 44.3395C203.999 45.2344 201.883 45.6818 199.468 45.6818Z" fill="white"/>
<path d="M233.921 12.2727V16.5341H216.961V12.2727H233.921ZM221.904 4.43182H226.933V35.625C226.933 37.0455 227.139 38.1108 227.55 38.821C227.977 39.517 228.516 39.9858 229.17 40.2273C229.837 40.4545 230.54 40.5682 231.279 40.5682C231.833 40.5682 232.288 40.5398 232.643 40.483C232.998 40.4119 233.282 40.3551 233.495 40.3125L234.518 44.8295C234.177 44.9574 233.701 45.0852 233.09 45.2131C232.479 45.3551 231.705 45.4261 230.768 45.4261C229.347 45.4261 227.955 45.1207 226.592 44.5099C225.242 43.8991 224.12 42.9688 223.225 41.7188C222.344 40.4688 221.904 38.892 221.904 36.9886V4.43182Z" fill="white"/>
<path d="M237.73 6.05114V1.36364H270.457V6.05114H256.735V45H251.451V6.05114H237.73Z" fill="white"/>
<path d="M286.906 45.6818C283.753 45.6818 281.032 44.9858 278.745 43.5938C276.473 42.1875 274.718 40.2273 273.483 37.7131C272.261 35.1847 271.65 32.2443 271.65 28.892C271.65 25.5398 272.261 22.5852 273.483 20.0284C274.718 17.4574 276.437 15.4545 278.639 14.0199C280.855 12.571 283.44 11.8466 286.395 11.8466C288.099 11.8466 289.782 12.1307 291.444 12.6989C293.106 13.267 294.619 14.1903 295.983 15.4688C297.346 16.733 298.433 18.4091 299.243 20.4972C300.052 22.5852 300.457 25.1562 300.457 28.2102V30.3409H275.23V25.9943H295.343C295.343 24.1477 294.974 22.5 294.235 21.0511C293.511 19.6023 292.474 18.4588 291.125 17.6207C289.789 16.7827 288.213 16.3636 286.395 16.3636C284.392 16.3636 282.659 16.8608 281.196 17.8551C279.747 18.8352 278.632 20.1136 277.851 21.6903C277.069 23.267 276.679 24.9574 276.679 26.7614V29.6591C276.679 32.1307 277.105 34.2259 277.957 35.9446C278.824 37.6491 280.024 38.9489 281.558 39.8438C283.092 40.7244 284.875 41.1648 286.906 41.1648C288.227 41.1648 289.42 40.9801 290.485 40.6108C291.565 40.2273 292.495 39.6591 293.277 38.9062C294.058 38.1392 294.662 37.1875 295.088 36.0511L299.946 37.4148C299.434 39.0625 298.575 40.5114 297.368 41.7614C296.16 42.9972 294.669 43.9631 292.893 44.6591C291.118 45.3409 289.122 45.6818 286.906 45.6818Z" fill="white"/>
<path d="M321.402 45.6818C318.333 45.6818 315.691 44.9574 313.476 43.5085C311.26 42.0597 309.555 40.0639 308.362 37.5213C307.169 34.9787 306.572 32.0739 306.572 28.8068C306.572 25.483 307.183 22.5497 308.404 20.0071C309.64 17.4503 311.359 15.4545 313.561 14.0199C315.777 12.571 318.362 11.8466 321.316 11.8466C323.618 11.8466 325.691 12.2727 327.538 13.125C329.385 13.9773 330.897 15.1705 332.076 16.7045C333.255 18.2386 333.987 20.0284 334.271 22.0739H329.243C328.859 20.5824 328.007 19.2614 326.686 18.1108C325.379 16.946 323.618 16.3636 321.402 16.3636C319.441 16.3636 317.723 16.875 316.245 17.8977C314.782 18.9062 313.639 20.3338 312.815 22.1804C312.005 24.0128 311.601 26.1648 311.601 28.6364C311.601 31.1648 311.998 33.3665 312.794 35.2415C313.603 37.1165 314.74 38.5724 316.203 39.6094C317.68 40.6463 319.413 41.1648 321.402 41.1648C322.708 41.1648 323.895 40.9375 324.96 40.483C326.025 40.0284 326.927 39.375 327.666 38.5227C328.404 37.6705 328.93 36.6477 329.243 35.4545H334.271C333.987 37.3864 333.284 39.1264 332.162 40.6747C331.054 42.2088 329.583 43.4304 327.751 44.3395C325.933 45.2344 323.816 45.6818 321.402 45.6818Z" fill="white"/>
<path d="M346.65 25.3125V45H341.622V1.36364H346.65V17.3864H347.076C347.843 15.696 348.994 14.3537 350.528 13.3594C352.076 12.3509 354.136 11.8466 356.707 11.8466C358.937 11.8466 360.89 12.294 362.566 13.1889C364.243 14.0696 365.542 15.4261 366.466 17.2585C367.403 19.0767 367.872 21.392 367.872 24.2045V45H362.843V24.5455C362.843 21.946 362.169 19.9361 360.819 18.5156C359.484 17.081 357.63 16.3636 355.258 16.3636C353.61 16.3636 352.133 16.7116 350.826 17.4077C349.534 18.1037 348.511 19.1193 347.758 20.4545C347.02 21.7898 346.65 23.4091 346.65 25.3125Z" fill="white"/>
</svg>
